<svg xmlns="http://www.w3.org/2000/svg" viewBox="0 0 108 38"><path fill="#FFFFFF" d="M44.61 27.86a2 2 0 0 0 .55-.1v1.33c-.38.14-.78.21-1.18.21a1.67 1.67 0 0 1-1.67-1c-.89.72-2 1.1-3.14 1.08-1.51 0-2.91-.83-2.91-2.55 0-2.13 2-2.79 3.71-2.79.73.01 1.46.1 2.17.25v-.3c0-1-.76-1.77-2.19-1.77-1.03 0-2.06.22-3 .64v-1.7c1.03-.35 2.1-.54 3.19-.55 2.36 0 3.81 1.12 3.81 3.65v3a.54.54 0 0 0 .49.59h.17v.01zm-6.44-1.13a1.35 1.35 0 0 0 1.46 1.25h.11c.9 0 1.77-.36 2.41-1v-1.42c-.6-.13-1.2-.2-1.81-.21-1 0-2.16.33-2.16 1.38h-.01zm12.36-6.11a5 5 0 0 1 2.57.64v1.72a4.08 4.08 0 0 0-2.3-.7 2.75 2.75 0 1 0 0 5.49 5 5 0 0 0 2.43-.64v1.71c-.86.4-1.8.6-2.76.57A4.21 4.21 0 0 1 46 25.49v-.41a4.32 4.32 0 0 1 4.18-4.46h.38-.03zm12.17 7.24a2 2 0 0 0 .55-.1v1.33c-.38.14-.78.21-1.18.21a1.67 1.67 0 0 1-1.67-1c-.89.72-2 1.1-3.14 1.08-1.51 0-2.91-.83-2.91-2.55 0-2.13 2-2.79 3.71-2.79.73.01 1.46.1 2.17.25v-.3c0-1-.76-1.77-2.19-1.77-1.03 0-2.06.22-3 .64v-1.7c1.03-.35 2.1-.54 3.19-.55 2.36 0 3.81 1.12 3.81 3.65v3a.54.54 0 0 0 .49.59h.17v.01zm-6.44-1.13a1.35 1.35 0 0 0 1.47 1.25h.11c.9 0 1.77-.36 2.41-1v-1.42c-.6-.13-1.2-.2-1.81-.21-1.06 0-2.16.33-2.16 1.38h-.02zM73 16.98v12.2h-1.65v-1.32a3.88 3.88 0 0 1-3.19 1.54 4.4 4.4 0 0 1 0-8.78 3.81 3.81 0 0 1 3 1.3v-4.94H73zm-4.53 5.22a2.76 2.76 0 0 0 0 5.52 2.86 2.86 0 0 0 2.68-1.74v-2a2.91 2.91 0 0 0-2.66-1.73l-.02-.05zM79 20.62c3.31 0 4.46 2.68 3.92 5.09H76.7c.21 1.5 1.67 2.11 3.19 2.11.91 0 1.82-.2 2.64-.59v1.6c-.95.4-1.97.6-3 .57-2.53 0-4.75-1.42-4.75-4.42a4.18 4.18 0 0 1 4-4.39H79v.03zm.09 1.54a2.28 2.28 0 0 0-2.44 2.1v.06h4.65a2 2 0 0 0-2.17-2.16h-.04zm5.73 7v-8.31h1.65v1c.7-.8 1.72-1.25 2.78-1.27 1.07-.07 2.1.47 2.64 1.4.75-.82 1.8-1.3 2.91-1.33a3.06 3.06 0 0 1 3.2 3.33v5.2h-1.9v-5.15a1.59 1.59 0 0 0-1.42-1.75h-.26a2.8 2.8 0 0 0-2.07 1.12v5.78h-1.9v-5.15A1.59 1.59 0 0 0 89 22.29h-.2a3 3 0 0 0-2.21 1.29v5.63h-1.73l-.04-.05zm21.31-8.33h1.9l-3.91 9.46c-.9 2.17-2.09 2.86-3.35 2.86-.37 0-.74-.05-1.1-.14v-1.57c.28.08.56.12.85.12.9 0 1.58-.64 2.07-1.9l.17-.42-4-8.4h2l2.86 6.29 2.51-6.3zM38.73 2.44V7.2a3.81 3.81 0 0 1 2.7-1.14 3.25 3.25 0 0 1 3.44 3.4v5.15H43V9.7a1.81 1.81 0 0 0-1.61-2h-.3c-.95.06-1.82.58-2.32 1.39v5.52h-1.9V2.44h1.9-.04zm11.21.85v3h3v1.6h-3v3.81c0 1.1.5 1.46 1.58 1.46.58 0 1.15-.11 1.69-.33v1.6a6.8 6.8 0 0 1-2.21.35 2.55 2.55 0 0 1-2.86-2.74V7.87h-1.56V6.24h1.5V3.72l1.86-.43zm5.4 11.31V6.26H57v1c.7-.8 1.7-1.26 2.77-1.28a2.86 2.86 0 0 1 2.6 1.33c.75-.82 1.8-1.3 2.91-1.33a3.06 3.06 0 0 1 3.16 3.4v5.21h-1.9V9.44a1.59 1.59 0 0 0-1.42-1.75h-.23a2.8 2.8 0 0 0-2.07 1.12v5.78h-1.9V9.44a1.59 1.59 0 0 0-1.42-1.75h-.23a3 3 0 0 0-2.21 1.29v5.63h-1.72v-.01zM71.17 2.43H73v12.15h-1.83V2.43zM14.71.98h-.16L0 2.52v26.67l14.55 8.66 14.55-8.66V2.52L14.71.98zm12.5 27.1l-12.66 7.54L1.9 28.1V17.16l12.59 7.5v1.32l-8.63-5.1v1.31l8.68 5.21v1.39l-8.67-5.16v1.35l8.68 5.21 8.75-5.24v-5.66l3.9-2.31V28.1l.01-.02zm0-12.53l-3.48 2-1.6 1-7.62-4.57v1.31L21 19.21l-.14.09-1 .54-5.37-3.2v1.34l4.24 2.52-1 .67-3.2-1.9v1.31l2.1 1.24-2.13 1.26L2 15.63l12.51-7.54 12.7 7.46zm0-1.32L14.49 6.74 1.91 14.23v-10L14.56 2.9l12.65 1.33v10z"/></svg>